<?xml version="1.0" encoding="utf-8"?><svg xml:space="preserve" viewBox="0 0 100 100" y="0" x="0" xmlns="http://www.w3.org/2000/svg" id="Layer_1" version="1.1" width="200px" height="200px" xmlns:xlink="http://www.w3.org/1999/xlink" style="width:100%;height:100%;background-size:initial;background-repeat-y:initial;background-repeat-x:initial;background-position-y:initial;background-position-x:initial;background-origin:initial;background-color:initial;background-clip:initial;background-attachment:initial;animation-play-state:paused" ><g class="ldl-scale" style="transform-origin:50% 50%;transform:rotate(0deg) scale(0.8, 0.8);animation-play-state:paused" ><g style="animation-play-state:paused" ><path d="M11.369 18.469v63.062h47.963V18.469z" stroke-miterlimit="10" stroke-width="3.5" stroke-linejoin="round" stroke="#333" fill="#fff" style="stroke:rgb(0, 67, 76);fill:rgb(255, 255, 255);animation-play-state:paused" ></path>
<path d="M22.028 28.239h26.646" stroke-miterlimit="10" stroke-linecap="round" stroke-width="3.5" stroke="#333" stroke-linejoin="round" fill="none" style="stroke:rgb(0, 67, 76);animation-play-state:paused" ></path>
<path d="M22.028 37.121h26.646" stroke-miterlimit="10" stroke-linecap="round" stroke-width="3.5" stroke="#333" stroke-linejoin="round" fill="none" style="stroke:rgb(0, 67, 76);animation-play-state:paused" ></path>
<path d="M22.028 46.003h26.646" stroke-miterlimit="10" stroke-linecap="round" stroke-width="3.5" stroke="#333" stroke-linejoin="round" fill="none" style="stroke:rgb(0, 67, 76);animation-play-state:paused" ></path>
<path d="M22.028 54.885h26.646" stroke-miterlimit="10" stroke-linecap="round" stroke-width="3.5" stroke="#333" stroke-linejoin="round" fill="none" style="stroke:rgb(0, 67, 76);animation-play-state:paused" ></path>
<path d="M22.028 63.767h26.646" stroke-miterlimit="10" stroke-linecap="round" stroke-width="3.5" stroke="#333" stroke-linejoin="round" fill="none" style="stroke:rgb(0, 67, 76);animation-play-state:paused" ></path>
<path d="M22.028 72.649h4.576" stroke-miterlimit="10" stroke-linecap="round" stroke-width="3.5" stroke="#333" stroke-linejoin="round" fill="none" style="stroke:rgb(0, 67, 76);animation-play-state:paused" ></path>
<path d="M30.343 81.531h28.989V18.469H42.043z" stroke-miterlimit="10" stroke-width="3.5" stroke="#000" opacity=".2" style="stroke:rgb(51, 51, 51);fill:rgb(51, 51, 51);animation-play-state:paused" ></path></g>
<g style="animation-play-state:paused" ><path d="M73.422 26.926L84.727 38.23 53.324 69.633 42.02 58.328z" stroke-miterlimit="10" stroke-width="3.499965" fill="#f47e5f" stroke-linejoin="round" stroke="#333" style="stroke:rgb(0, 67, 76);fill:rgb(251, 159, 175);animation-play-state:paused" ></path>
<path d="M80.33 20.016l11.305 11.306-6.908 6.908L73.42 26.925z" stroke-miterlimit="10" stroke-width="3.499965" fill="#f4e6c8" stroke-linejoin="round" stroke="#333" style="stroke:rgb(0, 67, 76);fill:rgb(193, 227, 194);animation-play-state:paused" ></path>
<path stroke-linejoin="round" stroke="#333" fill="#f7b26a" stroke-miterlimit="10" stroke-width="3.5" d="M53.075 69.882L41.77 58.577l-4.044 14.442a.736.736 0 0 0 .907.907l14.442-4.044z" style="stroke:rgb(0, 67, 76);fill:rgb(244, 230, 200);animation-play-state:paused" ></path>
<path d="M54.26 58.009l18.842-18.841" stroke-miterlimit="10" stroke-linecap="round" stroke-width="3.5" stroke="#333" stroke-linejoin="round" fill="none" style="stroke:rgb(0, 67, 76);animation-play-state:paused" ></path>
<path stroke-linejoin="round" stroke="#333" stroke-linecap="round" fill="#333" stroke-miterlimit="10" stroke-width="3.5" d="M39.237 67.625l-1.51 5.394a.736.736 0 0 0 .907.907l5.394-1.51-4.791-4.791z" style="stroke:rgb(0, 67, 76);fill:rgb(0, 67, 76);animation-play-state:paused" ></path>
<path opacity=".2" d="M92.861 30.096l-5.504-5.504-50.501 50.501a2.462 2.462 0 0 0 2.245.504l14.442-4.044c.344-.096.634-.303.856-.568.051-.041.104-.076.151-.123L92.862 32.55a1.736 1.736 0 0 0-.001-2.454z" style="fill:rgb(51, 51, 51);animation-play-state:paused" ></path></g>
<metadata xmlns:d="https://loading.io/stock/" style="animation-play-state:paused" ><d:name style="animation-play-state:paused" >text</d:name>


<d:tags style="animation-play-state:paused" >text,document,article,write,writer,editor,composer,journalism,news reporter,journalist,author</d:tags>


<d:license style="animation-play-state:paused" >by</d:license>


<d:slug style="animation-play-state:paused" >xz5ng8</d:slug></metadata></g><!-- generated by https://loading.io/ --></svg>