<?xml version="1.0" encoding="utf-8"?><svg xml:space="preserve" viewBox="0 0 100 100" y="0" x="0" xmlns="http://www.w3.org/2000/svg" id="圖層_1" version="1.1" width="200px" height="200px" xmlns:xlink="http://www.w3.org/1999/xlink" style="width:100%;height:100%;background-size:initial;background-repeat-y:initial;background-repeat-x:initial;background-position-y:initial;background-position-x:initial;background-origin:initial;background-color:initial;background-clip:initial;background-attachment:initial;animation-play-state:paused" ><g class="ldl-scale" style="transform-origin:50% 50%;transform:rotate(0deg) scale(0.8, 0.8);animation-play-state:paused" ><path fill="#333" d="M62.8 44.6c-.6-.4-1.3-.7-2-1 6.2-4.1 10-11.7 8.6-20-1.5-8.4-8.6-15-17.1-16-11.9-1.4-22 7.9-22 19.5 0 6.9 3.5 12.9 8.9 16.4-.7.3-1.4.6-2 1-7.7 4.5-12.9 12.8-12.9 22.3v16.8c0 4.9 4 8.9 8.9 8.9h33.6c4.9 0 8.9-4 8.9-8.9V66.8c0-9.5-5.2-17.8-12.9-22.2z" style="fill:rgb(251, 159, 175);animation-play-state:paused" ></path>
<path d="M62.5 65.4h-8.8v-8.8h-7.4v8.8h-8.8v7.4h8.8v8.8h7.4v-8.8h8.8z" fill="#f5e6c8" style="fill:rgb(0, 187, 212);animation-play-state:paused" ></path>
<metadata xmlns:d="https://loading.io/stock/" style="animation-play-state:paused" ><d:name style="animation-play-state:paused" >user</d:name>


<d:tags style="animation-play-state:paused" >people,sign up,config,man,figure,human,account,profile,add,user,web application</d:tags>


<d:license style="animation-play-state:paused" >by</d:license>


<d:slug style="animation-play-state:paused" >hsi6uo</d:slug></metadata></g><!-- generated by https://loading.io/ --></svg>